<?xml version="1.0" encoding="UTF-8" standalone="no"?>
<!-- Created with Inkscape (http://www.inkscape.org/) -->

<svg
   xmlns:dc="http://purl.org/dc/elements/1.1/"
   xmlns:cc="http://creativecommons.org/ns#"
   xmlns:rdf="http://www.w3.org/1999/02/22-rdf-syntax-ns#"
   xmlns:svg="http://www.w3.org/2000/svg"
   xmlns="http://www.w3.org/2000/svg"
   xmlns:sodipodi="http://sodipodi.sourceforge.net/DTD/sodipodi-0.dtd"
   xmlns:inkscape="http://www.inkscape.org/namespaces/inkscape"
   id="svg2"
   version="1.1"
   inkscape:version="0.48.2 r9819"
   width="205.56"
   height="298.09125"
   xml:space="preserve"
   sodipodi:docname="logo.eps"><metadata
     id="metadata8"><rdf:RDF><cc:Work
         rdf:about=""><dc:format>image/svg+xml</dc:format><dc:type
           rdf:resource="http://purl.org/dc/dcmitype/StillImage" /><dc:title></dc:title></cc:Work></rdf:RDF></metadata><defs
     id="defs6" /><sodipodi:namedview
     pagecolor="#ffffff"
     bordercolor="#666666"
     borderopacity="1"
     objecttolerance="10"
     gridtolerance="10"
     guidetolerance="10"
     inkscape:pageopacity="0"
     inkscape:pageshadow="2"
     inkscape:window-width="1920"
     inkscape:window-height="979"
     id="namedview4"
     showgrid="false"
     fit-margin-top="0"
     fit-margin-left="0"
     fit-margin-right="0"
     fit-margin-bottom="0"
     inkscape:zoom="1.0447823"
     inkscape:cx="36.697524"
     inkscape:cy="128.25642"
     inkscape:window-x="-2"
     inkscape:window-y="69"
     inkscape:window-maximized="1"
     inkscape:current-layer="g12" /><g
     id="g10"
     inkscape:groupmode="layer"
     inkscape:label="ink_ext_XXXXXX"
     transform="matrix(1.25,0,0,-1.25,-348.99125,692.94125)"><g
       id="g12"
       transform="scale(0.1,0.1)"><path
         d="m 4436.41,4747.92 c 0,-28.32 -14.16,-42.48 -42.48,-42.48 -28.32,0 -42.48,14.16 -42.48,42.48 0,28.33 14.16,42.49 42.48,42.49 28.32,0 42.48,-14.16 42.48,-42.49"
         style="fill:#1f2221;fill-opacity:1;fill-rule:nonzero;stroke:none"
         id="path40"
         inkscape:connector-curvature="0" /><path
         d="m 4434.24,4657.2 c 0,-26.88 -13.43,-40.32 -40.31,-40.32 -26.87,0 -40.31,13.44 -40.31,40.32 0,26.88 13.44,40.31 40.31,40.31 26.88,0 40.31,-13.43 40.31,-40.31"
         style="fill:#1f2221;fill-opacity:1;fill-rule:nonzero;stroke:none"
         id="path42"
         inkscape:connector-curvature="0" /><path
         d="m 4432.1,4566.47 c 0,-25.44 -12.74,-38.16 -38.17,-38.16 -25.45,0 -38.16,12.72 -38.16,38.16 0,25.43 12.71,38.17 38.16,38.17 25.43,0 38.17,-12.74 38.17,-38.17"
         style="fill:#1f2221;fill-opacity:1;fill-rule:nonzero;stroke:none"
         id="path44"
         inkscape:connector-curvature="0" /><path
         d="m 4429.93,4475.75 c 0,-24 -12.01,-35.99 -36,-35.99 -24,0 -36,11.99 -36,35.99 0,23.99 12,36 36,36 23.99,0 36,-12.01 36,-36"
         style="fill:#1f2221;fill-opacity:1;fill-rule:nonzero;stroke:none"
         id="path46"
         inkscape:connector-curvature="0" /><path
         d="m 4427.78,4385.03 c 0,-22.56 -11.29,-33.83 -33.85,-33.83 -22.58,0 -33.85,11.27 -33.85,33.83 0,22.56 11.27,33.85 33.85,33.85 22.56,0 33.85,-11.29 33.85,-33.85"
         style="fill:#1f2221;fill-opacity:1;fill-rule:nonzero;stroke:none"
         id="path48"
         inkscape:connector-curvature="0" /><path
         d="m 4425.61,4294.31 c 0,-21.14 -10.57,-31.68 -31.68,-31.68 -21.13,0 -31.68,10.54 -31.68,31.68 0,21.13 10.55,31.7 31.68,31.7 21.11,0 31.68,-10.57 31.68,-31.7"
         style="fill:#1f2221;fill-opacity:1;fill-rule:nonzero;stroke:none"
         id="path50"
         inkscape:connector-curvature="0" /><path
         d="m 4329.6,4294.31 c 0,-21.14 -10.57,-31.68 -31.68,-31.68 -21.14,0 -31.68,10.54 -31.68,31.68 0,21.13 10.54,31.7 31.68,31.7 21.11,0 31.68,-10.57 31.68,-31.7"
         style="fill:#1f2221;fill-opacity:1;fill-rule:nonzero;stroke:none"
         id="path52"
         inkscape:connector-curvature="0" /><path
         d="m 4423.44,4203.6 c 0,-20.15 -9.84,-30.25 -29.51,-30.25 -19.69,0 -29.51,10.1 -29.51,30.25 0,19.67 9.82,29.52 29.51,29.52 19.67,0 29.51,-9.85 29.51,-29.52"
         style="fill:#1f2221;fill-opacity:1;fill-rule:nonzero;stroke:none"
         id="path54"
         inkscape:connector-curvature="0" /><path
         d="m 4334.63,4566.47 c 0,-25.44 -12.73,-38.16 -38.16,-38.16 -25.45,0 -38.16,12.72 -38.16,38.16 0,25.43 12.71,38.17 38.16,38.17 25.43,0 38.16,-12.74 38.16,-38.17"
         style="fill:#1f2221;fill-opacity:1;fill-rule:nonzero;stroke:none"
         id="path56"
         inkscape:connector-curvature="0" /><path
         d="m 4332.47,4475.75 c 0,-24 -12.02,-35.99 -36,-35.99 -24,0 -36,11.99 -36,35.99 0,23.99 12,36 36,36 23.98,0 36,-12.01 36,-36"
         style="fill:#1f2221;fill-opacity:1;fill-rule:nonzero;stroke:none"
         id="path58"
         inkscape:connector-curvature="0" /><path
         d="m 4325.98,4203.6 c 0,-20.15 -9.84,-30.25 -29.51,-30.25 -19.69,0 -29.51,10.1 -29.51,30.25 0,19.67 9.82,29.52 29.51,29.52 19.67,0 29.51,-9.85 29.51,-29.52"
         style="fill:#1f2221;fill-opacity:1;fill-rule:nonzero;stroke:none"
         id="path60"
         inkscape:connector-curvature="0" /><path
         d="m 4241.47,4747.92 c 0,-28.32 -14.16,-42.48 -42.48,-42.48 -28.32,0 -42.48,14.16 -42.48,42.48 0,28.33 14.16,42.49 42.48,42.49 28.32,0 42.48,-14.16 42.48,-42.49"
         style="fill:#1f2221;fill-opacity:1;fill-rule:nonzero;stroke:none"
         id="path62"
         inkscape:connector-curvature="0" /><path
         d="m 4239.3,4657.2 c 0,-26.88 -13.44,-40.32 -40.31,-40.32 -26.88,0 -40.31,13.44 -40.31,40.32 0,26.88 13.43,40.31 40.31,40.31 26.87,0 40.31,-13.43 40.31,-40.31"
         style="fill:#1f2221;fill-opacity:1;fill-rule:nonzero;stroke:none"
         id="path64"
         inkscape:connector-curvature="0" /><path
         d="m 4339.52,4747.92 c 0,-28.32 -14.16,-42.48 -42.48,-42.48 -28.32,0 -42.48,14.16 -42.48,42.48 0,28.33 14.16,42.49 42.48,42.49 28.32,0 42.48,-14.16 42.48,-42.49"
         style="fill:#1f2221;fill-opacity:1;fill-rule:nonzero;stroke:none"
         id="path66"
         inkscape:connector-curvature="0" /><path
         d="m 4237.15,4566.47 c 0,-25.44 -12.73,-38.16 -38.16,-38.16 -25.45,0 -38.16,12.72 -38.16,38.16 0,25.43 12.71,38.17 38.16,38.17 25.43,0 38.16,-12.74 38.16,-38.17"
         style="fill:#1f2221;fill-opacity:1;fill-rule:nonzero;stroke:none"
         id="path68"
         inkscape:connector-curvature="0" /><path
         d="m 4234.99,4475.75 c 0,-24 -12.02,-35.99 -36,-35.99 -24,0 -36,11.99 -36,35.99 0,23.99 12,36 36,36 23.98,0 36,-12.01 36,-36"
         style="fill:#1f2221;fill-opacity:1;fill-rule:nonzero;stroke:none"
         id="path70"
         inkscape:connector-curvature="0" /><path
         d="m 4232.84,4385.03 c 0,-22.56 -11.29,-33.83 -33.85,-33.83 -22.58,0 -33.85,11.27 -33.85,33.83 0,22.56 11.27,33.85 33.85,33.85 22.56,0 33.85,-11.29 33.85,-33.85"
         style="fill:#1f2221;fill-opacity:1;fill-rule:nonzero;stroke:none"
         id="path72"
         inkscape:connector-curvature="0" /><path
         d="m 4230.67,4294.31 c 0,-21.14 -10.57,-31.68 -31.68,-31.68 -21.13,0 -31.68,10.54 -31.68,31.68 0,21.13 10.55,31.7 31.68,31.7 21.11,0 31.68,-10.57 31.68,-31.7"
         style="fill:#1f2221;fill-opacity:1;fill-rule:nonzero;stroke:none"
         id="path74"
         inkscape:connector-curvature="0" /><path
         d="m 4228.5,4203.6 c 0,-20.15 -9.84,-30.25 -29.51,-30.25 -19.69,0 -29.51,10.1 -29.51,30.25 0,19.67 9.82,29.52 29.51,29.52 19.67,0 29.51,-9.85 29.51,-29.52"
         style="fill:#1f2221;fill-opacity:1;fill-rule:nonzero;stroke:none"
         id="path76"
         inkscape:connector-curvature="0" /><path
         d="m 4139.69,4566.47 c 0,-25.44 -12.73,-38.16 -38.16,-38.16 -25.45,0 -38.17,12.72 -38.17,38.16 0,25.43 12.72,38.17 38.17,38.17 25.43,0 38.16,-12.74 38.16,-38.17"
         style="fill:#1f2221;fill-opacity:1;fill-rule:nonzero;stroke:none"
         id="path78"
         inkscape:connector-curvature="0" /><path
         d="m 4137.52,4475.75 c 0,-24 -12.01,-35.99 -35.99,-35.99 -24.01,0 -36,11.99 -36,35.99 0,23.99 11.99,36 36,36 23.98,0 35.99,-12.01 35.99,-36"
         style="fill:#1f2221;fill-opacity:1;fill-rule:nonzero;stroke:none"
         id="path80"
         inkscape:connector-curvature="0" /><path
         d="m 4135.38,4385.03 c 0,-22.56 -11.29,-33.83 -33.85,-33.83 -22.58,0 -33.85,11.27 -33.85,33.83 0,22.56 11.27,33.85 33.85,33.85 22.56,0 33.85,-11.29 33.85,-33.85"
         style="fill:#1f2221;fill-opacity:1;fill-rule:nonzero;stroke:none"
         id="path82"
         inkscape:connector-curvature="0" /><path
         d="m 4042.21,4566.47 c 0,-25.44 -12.73,-38.16 -38.16,-38.16 -25.45,0 -38.17,12.72 -38.17,38.16 0,25.43 12.72,38.17 38.17,38.17 25.43,0 38.16,-12.74 38.16,-38.17"
         style="fill:#1f2221;fill-opacity:1;fill-rule:nonzero;stroke:none"
         id="path84"
         inkscape:connector-curvature="0" /><path
         d="m 4040.04,4475.75 c 0,-24 -12.01,-35.99 -35.99,-35.99 -24.01,0 -36,11.99 -36,35.99 0,23.99 11.99,36 36,36 23.98,0 35.99,-12.01 35.99,-36"
         style="fill:#1f2221;fill-opacity:1;fill-rule:nonzero;stroke:none"
         id="path86"
         inkscape:connector-curvature="0" /><path
         d="m 4037.9,4385.03 c 0,-22.56 -11.29,-33.83 -33.85,-33.83 -22.58,0 -33.85,11.27 -33.85,33.83 0,22.56 11.27,33.85 33.85,33.85 22.56,0 33.85,-11.29 33.85,-33.85"
         style="fill:#1f2221;fill-opacity:1;fill-rule:nonzero;stroke:none"
         id="path88"
         inkscape:connector-curvature="0" /><path
         d="m 3937.41,4385.03 c 0,-22.56 -11.29,-33.83 -33.85,-33.83 -22.58,0 -33.85,11.27 -33.85,33.83 0,22.56 11.27,33.85 33.85,33.85 22.56,0 33.85,-11.29 33.85,-33.85"
         style="fill:#1f2221;fill-opacity:1;fill-rule:nonzero;stroke:none"
         id="path90"
         inkscape:connector-curvature="0" /><path
         d="m 4035.73,4294.31 c 0,-21.14 -10.57,-31.68 -31.68,-31.68 -21.13,0 -31.68,10.54 -31.68,31.68 0,21.13 10.55,31.7 31.68,31.7 21.11,0 31.68,-10.57 31.68,-31.7"
         style="fill:#1f2221;fill-opacity:1;fill-rule:nonzero;stroke:none"
         id="path92"
         inkscape:connector-curvature="0" /><path
         d="m 4033.56,4203.6 c 0,-20.15 -9.84,-30.25 -29.51,-30.25 -19.69,0 -29.51,10.1 -29.51,30.25 0,19.67 9.82,29.52 29.51,29.52 19.67,0 29.51,-9.85 29.51,-29.52"
         style="fill:#1f2221;fill-opacity:1;fill-rule:nonzero;stroke:none"
         id="path94"
         inkscape:connector-curvature="0" /><path
         d="m 3949.07,4747.92 c 0,-28.32 -14.16,-42.48 -42.48,-42.48 -28.32,0 -42.48,14.16 -42.48,42.48 0,28.33 14.16,42.49 42.48,42.49 28.32,0 42.48,-14.16 42.48,-42.49"
         style="fill:#1f2221;fill-opacity:1;fill-rule:nonzero;stroke:none"
         id="path96"
         inkscape:connector-curvature="0" /><path
         d="m 3946.9,4657.2 c 0,-26.88 -13.44,-40.32 -40.31,-40.32 -26.88,0 -40.32,13.44 -40.32,40.32 0,26.88 13.44,40.31 40.32,40.31 26.87,0 40.31,-13.43 40.31,-40.31"
         style="fill:#1f2221;fill-opacity:1;fill-rule:nonzero;stroke:none"
         id="path98"
         inkscape:connector-curvature="0" /><path
         d="m 3944.75,4566.47 c 0,-25.44 -12.73,-38.16 -38.16,-38.16 -25.45,0 -38.17,12.72 -38.17,38.16 0,25.43 12.72,38.17 38.17,38.17 25.43,0 38.16,-12.74 38.16,-38.17"
         style="fill:#1f2221;fill-opacity:1;fill-rule:nonzero;stroke:none"
         id="path100"
         inkscape:connector-curvature="0" /><path
         d="m 3938.27,4294.31 c 0,-21.14 -10.57,-31.68 -31.68,-31.68 -21.14,0 -31.68,10.54 -31.68,31.68 0,21.13 10.54,31.7 31.68,31.7 21.11,0 31.68,-10.57 31.68,-31.7"
         style="fill:#1f2221;fill-opacity:1;fill-rule:nonzero;stroke:none"
         id="path102"
         inkscape:connector-curvature="0" /><path
         d="m 3936.1,4203.6 c 0,-20.15 -9.84,-30.25 -29.51,-30.25 -19.69,0 -29.51,10.1 -29.51,30.25 0,19.67 9.82,29.52 29.51,29.52 19.67,0 29.51,-9.85 29.51,-29.52"
         style="fill:#1f2221;fill-opacity:1;fill-rule:nonzero;stroke:none"
         id="path104"
         inkscape:connector-curvature="0" /><path
         d="m 3851.59,4747.92 c 0,-28.32 -14.16,-42.48 -42.48,-42.48 -28.32,0 -42.48,14.16 -42.48,42.48 0,28.33 14.16,42.49 42.48,42.49 28.32,0 42.48,-14.16 42.48,-42.49"
         style="fill:#1f2221;fill-opacity:1;fill-rule:nonzero;stroke:none"
         id="path106"
         inkscape:connector-curvature="0" /><path
         d="m 3849.42,4657.2 c 0,-26.88 -13.44,-40.32 -40.31,-40.32 -26.88,0 -40.32,13.44 -40.32,40.32 0,26.88 13.44,40.31 40.32,40.31 26.87,0 40.31,-13.43 40.31,-40.31"
         style="fill:#1f2221;fill-opacity:1;fill-rule:nonzero;stroke:none"
         id="path108"
         inkscape:connector-curvature="0" /><path
         d="m 3847.27,4566.47 c 0,-25.44 -12.73,-38.16 -38.16,-38.16 -25.45,0 -38.17,12.72 -38.17,38.16 0,25.43 12.72,38.17 38.17,38.17 25.43,0 38.16,-12.74 38.16,-38.17"
         style="fill:#1f2221;fill-opacity:1;fill-rule:nonzero;stroke:none"
         id="path110"
         inkscape:connector-curvature="0" /><path
         d="m 3845.1,4475.75 c 0,-24 -12.01,-35.99 -35.99,-35.99 -24.01,0 -36,11.99 -36,35.99 0,23.99 11.99,36 36,36 23.98,0 35.99,-12.01 35.99,-36"
         style="fill:#1f2221;fill-opacity:1;fill-rule:nonzero;stroke:none"
         id="path112"
         inkscape:connector-curvature="0" /><path
         d="m 3942.31,4475.75 c 0,-24 -12.01,-35.99 -36,-35.99 -24,0 -35.99,11.99 -35.99,35.99 0,23.99 11.99,36 35.99,36 23.99,0 36,-12.01 36,-36"
         style="fill:#1f2221;fill-opacity:1;fill-rule:nonzero;stroke:none"
         id="path114"
         inkscape:connector-curvature="0" /><path
         d="m 3838.62,4203.6 c 0,-20.15 -9.85,-30.25 -29.51,-30.25 -19.69,0 -29.51,10.1 -29.51,30.25 0,19.67 9.82,29.52 29.51,29.52 19.66,0 29.51,-9.85 29.51,-29.52"
         style="fill:#1f2221;fill-opacity:1;fill-rule:nonzero;stroke:none"
         id="path116"
         inkscape:connector-curvature="0" /><path
         d="m 3751.96,4657.2 c 0,-26.88 -13.44,-40.32 -40.31,-40.32 -26.88,0 -40.32,13.44 -40.32,40.32 0,26.88 13.44,40.31 40.32,40.31 26.87,0 40.31,-13.43 40.31,-40.31"
         style="fill:#1f2221;fill-opacity:1;fill-rule:nonzero;stroke:none"
         id="path118"
         inkscape:connector-curvature="0" /><path
         d="m 3749.81,4566.47 c 0,-25.44 -12.73,-38.16 -38.16,-38.16 -25.45,0 -38.17,12.72 -38.17,38.16 0,25.43 12.72,38.17 38.17,38.17 25.43,0 38.16,-12.74 38.16,-38.17"
         style="fill:#1f2221;fill-opacity:1;fill-rule:nonzero;stroke:none"
         id="path120"
         inkscape:connector-curvature="0" /><path
         d="m 3747.64,4475.75 c 0,-24 -12.01,-35.99 -35.99,-35.99 -24.01,0 -36,11.99 -36,35.99 0,23.99 11.99,36 36,36 23.98,0 35.99,-12.01 35.99,-36"
         style="fill:#1f2221;fill-opacity:1;fill-rule:nonzero;stroke:none"
         id="path122"
         inkscape:connector-curvature="0" /><path
         d="m 3745.49,4385.03 c 0,-22.56 -11.29,-33.83 -33.84,-33.83 -22.58,0 -33.85,11.27 -33.85,33.83 0,22.56 11.27,33.85 33.85,33.85 22.55,0 33.84,-11.29 33.84,-33.85"
         style="fill:#1f2221;fill-opacity:1;fill-rule:nonzero;stroke:none"
         id="path124"
         inkscape:connector-curvature="0" /><path
         d="m 3743.33,4294.31 c 0,-21.14 -10.57,-31.68 -31.68,-31.68 -21.14,0 -31.68,10.54 -31.68,31.68 0,21.13 10.54,31.7 31.68,31.7 21.11,0 31.68,-10.57 31.68,-31.7"
         style="fill:#1f2221;fill-opacity:1;fill-rule:nonzero;stroke:none"
         id="path126"
         inkscape:connector-curvature="0" /><path
         d="m 3741.16,4203.6 c 0,-20.15 -9.85,-30.25 -29.51,-30.25 -19.69,0 -29.52,10.1 -29.52,30.25 0,19.67 9.83,29.52 29.52,29.52 19.66,0 29.51,-9.85 29.51,-29.52"
         style="fill:#1f2221;fill-opacity:1;fill-rule:nonzero;stroke:none"
         id="path128"
         inkscape:connector-curvature="0" /><path
         d="m 3656.65,4747.92 c 0,-28.32 -14.16,-42.48 -42.48,-42.48 -28.32,0 -42.48,14.16 -42.48,42.48 0,28.33 14.16,42.49 42.48,42.49 28.32,0 42.48,-14.16 42.48,-42.49"
         style="fill:#1f2221;fill-opacity:1;fill-rule:nonzero;stroke:none"
         id="path130"
         inkscape:connector-curvature="0" /><path
         d="m 3648.01,4385.03 c 0,-22.56 -11.29,-33.83 -33.84,-33.83 -22.58,0 -33.85,11.27 -33.85,33.83 0,22.56 11.27,33.85 33.85,33.85 22.55,0 33.84,-11.29 33.84,-33.85"
         style="fill:#1f2221;fill-opacity:1;fill-rule:nonzero;stroke:none"
         id="path132"
         inkscape:connector-curvature="0" /><path
         d="m 3645.84,4294.31 c 0,-21.14 -10.56,-31.68 -31.67,-31.68 -21.13,0 -31.68,10.54 -31.68,31.68 0,21.13 10.55,31.7 31.68,31.7 21.11,0 31.67,-10.57 31.67,-31.7"
         style="fill:#1f2221;fill-opacity:1;fill-rule:nonzero;stroke:none"
         id="path134"
         inkscape:connector-curvature="0" /><path
         d="m 3643.68,4203.6 c 0,-20.15 -9.85,-30.25 -29.51,-30.25 -19.69,0 -29.51,10.1 -29.51,30.25 0,19.67 9.82,29.52 29.51,29.52 19.66,0 29.51,-9.85 29.51,-29.52"
         style="fill:#1f2221;fill-opacity:1;fill-rule:nonzero;stroke:none"
         id="path136"
         inkscape:connector-curvature="0" /><path
         d="m 3557.01,4657.2 c 0,-26.88 -13.44,-40.32 -40.31,-40.32 -26.88,0 -40.31,13.44 -40.31,40.32 0,26.88 13.43,40.31 40.31,40.31 26.87,0 40.31,-13.43 40.31,-40.31"
         style="fill:#1f2221;fill-opacity:1;fill-rule:nonzero;stroke:none"
         id="path138"
         inkscape:connector-curvature="0" /><path
         d="m 3554.86,4566.47 c 0,-25.44 -12.73,-38.16 -38.16,-38.16 -25.45,0 -38.16,12.72 -38.16,38.16 0,25.43 12.71,38.17 38.16,38.17 25.43,0 38.16,-12.74 38.16,-38.17"
         style="fill:#1f2221;fill-opacity:1;fill-rule:nonzero;stroke:none"
         id="path140"
         inkscape:connector-curvature="0" /><path
         d="m 3552.7,4475.75 c 0,-24 -12.02,-35.99 -36,-35.99 -24,0 -36,11.99 -36,35.99 0,23.99 12,36 36,36 23.98,0 36,-12.01 36,-36"
         style="fill:#1f2221;fill-opacity:1;fill-rule:nonzero;stroke:none"
         id="path142"
         inkscape:connector-curvature="0" /><path
         d="m 3649.54,4475.75 c 0,-24 -12.02,-35.99 -36,-35.99 -24,0 -35.99,11.99 -35.99,35.99 0,23.99 11.99,36 35.99,36 23.98,0 36,-12.01 36,-36"
         style="fill:#1f2221;fill-opacity:1;fill-rule:nonzero;stroke:none"
         id="path144"
         inkscape:connector-curvature="0" /><path
         d="m 3550.55,4385.03 c 0,-22.56 -11.29,-33.83 -33.85,-33.83 -22.58,0 -33.85,11.27 -33.85,33.83 0,22.56 11.27,33.85 33.85,33.85 22.56,0 33.85,-11.29 33.85,-33.85"
         style="fill:#1f2221;fill-opacity:1;fill-rule:nonzero;stroke:none"
         id="path146"
         inkscape:connector-curvature="0" /><path
         d="m 3548.38,4294.31 c 0,-21.14 -10.57,-31.68 -31.68,-31.68 -21.13,0 -31.68,10.54 -31.68,31.68 0,21.13 10.55,31.7 31.68,31.7 21.11,0 31.68,-10.57 31.68,-31.7"
         style="fill:#1f2221;fill-opacity:1;fill-rule:nonzero;stroke:none"
         id="path148"
         inkscape:connector-curvature="0" /><path
         d="m 3546.21,4203.6 c 0,-20.15 -9.84,-30.25 -29.51,-30.25 -19.69,0 -29.51,10.1 -29.51,30.25 0,19.67 9.82,29.52 29.51,29.52 19.67,0 29.51,-9.85 29.51,-29.52"
         style="fill:#1f2221;fill-opacity:1;fill-rule:nonzero;stroke:none"
         id="path150"
         inkscape:connector-curvature="0" /><path
         d="m 3461.72,4747.92 c 0,-28.32 -14.16,-42.48 -42.48,-42.48 -28.32,0 -42.48,14.16 -42.48,42.48 0,28.33 14.16,42.49 42.48,42.49 28.32,0 42.48,-14.16 42.48,-42.49"
         style="fill:#1f2221;fill-opacity:1;fill-rule:nonzero;stroke:none"
         id="path152"
         inkscape:connector-curvature="0" /><path
         d="m 3459.55,4657.2 c 0,-26.88 -13.44,-40.32 -40.31,-40.32 -26.88,0 -40.31,13.44 -40.31,40.32 0,26.88 13.43,40.31 40.31,40.31 26.87,0 40.31,-13.43 40.31,-40.31"
         style="fill:#1f2221;fill-opacity:1;fill-rule:nonzero;stroke:none"
         id="path154"
         inkscape:connector-curvature="0" /><path
         d="m 3457.4,4566.47 c 0,-25.44 -12.73,-38.16 -38.16,-38.16 -25.45,0 -38.17,12.72 -38.17,38.16 0,25.43 12.72,38.17 38.17,38.17 25.43,0 38.16,-12.74 38.16,-38.17"
         style="fill:#1f2221;fill-opacity:1;fill-rule:nonzero;stroke:none"
         id="path156"
         inkscape:connector-curvature="0" /><path
         d="m 3455.23,4475.75 c 0,-24 -12.01,-35.99 -35.99,-35.99 -24.01,0 -36,11.99 -36,35.99 0,23.99 11.99,36 36,36 23.98,0 35.99,-12.01 35.99,-36"
         style="fill:#1f2221;fill-opacity:1;fill-rule:nonzero;stroke:none"
         id="path158"
         inkscape:connector-curvature="0" /><path
         d="m 3448.75,4203.6 c 0,-20.15 -9.84,-30.25 -29.51,-30.25 -19.69,0 -29.51,10.1 -29.51,30.25 0,19.67 9.82,29.52 29.51,29.52 19.67,0 29.51,-9.85 29.51,-29.52"
         style="fill:#1f2221;fill-opacity:1;fill-rule:nonzero;stroke:none"
         id="path160"
         inkscape:connector-curvature="0" /><path
         d="m 3364.24,4747.92 c 0,-28.32 -14.16,-42.48 -42.48,-42.48 -28.32,0 -42.48,14.16 -42.48,42.48 0,28.33 14.16,42.49 42.48,42.49 28.32,0 42.48,-14.16 42.48,-42.49"
         style="fill:#1f2221;fill-opacity:1;fill-rule:nonzero;stroke:none"
         id="path162"
         inkscape:connector-curvature="0" /><path
         d="m 3362.07,4657.2 c 0,-26.88 -13.44,-40.32 -40.31,-40.32 -26.88,0 -40.31,13.44 -40.31,40.32 0,26.88 13.43,40.31 40.31,40.31 26.87,0 40.31,-13.43 40.31,-40.31"
         style="fill:#1f2221;fill-opacity:1;fill-rule:nonzero;stroke:none"
         id="path164"
         inkscape:connector-curvature="0" /><path
         d="m 3359.92,4566.47 c 0,-25.44 -12.73,-38.16 -38.16,-38.16 -25.45,0 -38.17,12.72 -38.17,38.16 0,25.43 12.72,38.17 38.17,38.17 25.43,0 38.16,-12.74 38.16,-38.17"
         style="fill:#1f2221;fill-opacity:1;fill-rule:nonzero;stroke:none"
         id="path166"
         inkscape:connector-curvature="0" /><path
         d="m 3353.44,4294.31 c 0,-21.14 -10.57,-31.68 -31.68,-31.68 -21.14,0 -31.68,10.54 -31.68,31.68 0,21.13 10.54,31.7 31.68,31.7 21.11,0 31.68,-10.57 31.68,-31.7"
         style="fill:#1f2221;fill-opacity:1;fill-rule:nonzero;stroke:none"
         id="path168"
         inkscape:connector-curvature="0" /><path
         d="m 3351.27,4203.6 c 0,-20.15 -9.84,-30.25 -29.51,-30.25 -19.69,0 -29.51,10.1 -29.51,30.25 0,19.67 9.82,29.52 29.51,29.52 19.67,0 29.51,-9.85 29.51,-29.52"
         style="fill:#1f2221;fill-opacity:1;fill-rule:nonzero;stroke:none"
         id="path170"
         inkscape:connector-curvature="0" /><path
         d="m 3262.46,4566.47 c 0,-25.44 -12.73,-38.16 -38.16,-38.16 -25.45,0 -38.17,12.72 -38.17,38.16 0,25.43 12.72,38.17 38.17,38.17 25.43,0 38.16,-12.74 38.16,-38.17"
         style="fill:#1f2221;fill-opacity:1;fill-rule:nonzero;stroke:none"
         id="path172"
         inkscape:connector-curvature="0" /><path
         d="m 3260.29,4475.75 c 0,-24 -12.01,-35.99 -35.99,-35.99 -24.01,0 -36,11.99 -36,35.99 0,23.99 11.99,36 36,36 23.98,0 35.99,-12.01 35.99,-36"
         style="fill:#1f2221;fill-opacity:1;fill-rule:nonzero;stroke:none"
         id="path174"
         inkscape:connector-curvature="0" /><path
         d="m 3357.48,4475.75 c 0,-24 -12.01,-35.99 -36,-35.99 -24,0 -35.99,11.99 -35.99,35.99 0,23.99 11.99,36 35.99,36 23.99,0 36,-12.01 36,-36"
         style="fill:#1f2221;fill-opacity:1;fill-rule:nonzero;stroke:none"
         id="path176"
         inkscape:connector-curvature="0" /><path
         d="m 3258.14,4385.03 c 0,-22.56 -11.28,-33.83 -33.84,-33.83 -22.58,0 -33.85,11.27 -33.85,33.83 0,22.56 11.27,33.85 33.85,33.85 22.56,0 33.84,-11.29 33.84,-33.85"
         style="fill:#1f2221;fill-opacity:1;fill-rule:nonzero;stroke:none"
         id="path178"
         inkscape:connector-curvature="0" /><path
         d="m 3354.92,4385.03 c 0,-22.56 -11.29,-33.83 -33.85,-33.83 -22.57,0 -33.84,11.27 -33.84,33.83 0,22.56 11.27,33.85 33.84,33.85 22.56,0 33.85,-11.29 33.85,-33.85"
         style="fill:#1f2221;fill-opacity:1;fill-rule:nonzero;stroke:none"
         id="path180"
         inkscape:connector-curvature="0" /><path
         d="m 3255.98,4294.31 c 0,-21.14 -10.57,-31.68 -31.68,-31.68 -21.14,0 -31.68,10.54 -31.68,31.68 0,21.13 10.54,31.7 31.68,31.7 21.11,0 31.68,-10.57 31.68,-31.7"
         style="fill:#1f2221;fill-opacity:1;fill-rule:nonzero;stroke:none"
         id="path182"
         inkscape:connector-curvature="0" /><path
         d="m 3253.81,4203.6 c 0,-20.15 -9.85,-30.25 -29.51,-30.25 -19.69,0 -29.51,10.1 -29.51,30.25 0,19.67 9.82,29.52 29.51,29.52 19.66,0 29.51,-9.85 29.51,-29.52"
         style="fill:#1f2221;fill-opacity:1;fill-rule:nonzero;stroke:none"
         id="path184"
         inkscape:connector-curvature="0" /><path
         d="m 3164.98,4566.47 c 0,-25.44 -12.73,-38.16 -38.16,-38.16 -25.45,0 -38.17,12.72 -38.17,38.16 0,25.43 12.72,38.17 38.17,38.17 25.43,0 38.16,-12.74 38.16,-38.17"
         style="fill:#1f2221;fill-opacity:1;fill-rule:nonzero;stroke:none"
         id="path186"
         inkscape:connector-curvature="0" /><path
         d="m 3162.81,4475.75 c 0,-24 -12.01,-35.99 -35.99,-35.99 -24.01,0 -36,11.99 -36,35.99 0,23.99 11.99,36 36,36 23.98,0 35.99,-12.01 35.99,-36"
         style="fill:#1f2221;fill-opacity:1;fill-rule:nonzero;stroke:none"
         id="path188"
         inkscape:connector-curvature="0" /><path
         d="m 3160.66,4385.03 c 0,-22.56 -11.28,-33.83 -33.84,-33.83 -22.58,0 -33.85,11.27 -33.85,33.83 0,22.56 11.27,33.85 33.85,33.85 22.56,0 33.84,-11.29 33.84,-33.85"
         style="fill:#1f2221;fill-opacity:1;fill-rule:nonzero;stroke:none"
         id="path190"
         inkscape:connector-curvature="0" /><path
         d="m 3071.84,4747.92 c 0,-28.32 -14.16,-42.48 -42.48,-42.48 -28.32,0 -42.48,14.16 -42.48,42.48 0,28.33 14.16,42.49 42.48,42.49 28.32,0 42.48,-14.16 42.48,-42.49"
         style="fill:#1f2221;fill-opacity:1;fill-rule:nonzero;stroke:none"
         id="path192"
         inkscape:connector-curvature="0" /><path
         d="m 3069.67,4657.2 c 0,-26.88 -13.44,-40.32 -40.31,-40.32 -26.88,0 -40.32,13.44 -40.32,40.32 0,26.88 13.44,40.31 40.32,40.31 26.87,0 40.31,-13.43 40.31,-40.31"
         style="fill:#1f2221;fill-opacity:1;fill-rule:nonzero;stroke:none"
         id="path194"
         inkscape:connector-curvature="0" /><path
         d="m 3067.52,4566.47 c 0,-25.44 -12.73,-38.16 -38.16,-38.16 -25.45,0 -38.17,12.72 -38.17,38.16 0,25.43 12.72,38.17 38.17,38.17 25.43,0 38.16,-12.74 38.16,-38.17"
         style="fill:#1f2221;fill-opacity:1;fill-rule:nonzero;stroke:none"
         id="path196"
         inkscape:connector-curvature="0" /><path
         d="m 3065.35,4475.75 c 0,-24 -12.01,-35.99 -35.99,-35.99 -24.01,0 -36,11.99 -36,35.99 0,23.99 11.99,36 36,36 23.98,0 35.99,-12.01 35.99,-36"
         style="fill:#1f2221;fill-opacity:1;fill-rule:nonzero;stroke:none"
         id="path198"
         inkscape:connector-curvature="0" /><path
         d="m 3063.2,4385.03 c 0,-22.56 -11.29,-33.83 -33.84,-33.83 -22.58,0 -33.85,11.27 -33.85,33.83 0,22.56 11.27,33.85 33.85,33.85 22.55,0 33.84,-11.29 33.84,-33.85"
         style="fill:#1f2221;fill-opacity:1;fill-rule:nonzero;stroke:none"
         id="path200"
         inkscape:connector-curvature="0" /><path
         d="m 3061.04,4294.31 c 0,-21.14 -10.57,-31.68 -31.68,-31.68 -21.14,0 -31.68,10.54 -31.68,31.68 0,21.13 10.54,31.7 31.68,31.7 21.11,0 31.68,-10.57 31.68,-31.7"
         style="fill:#1f2221;fill-opacity:1;fill-rule:nonzero;stroke:none"
         id="path202"
         inkscape:connector-curvature="0" /><path
         d="m 3058.87,4203.6 c 0,-20.15 -9.85,-30.25 -29.51,-30.25 -19.69,0 -29.52,10.1 -29.52,30.25 0,19.67 9.83,29.52 29.52,29.52 19.66,0 29.51,-9.85 29.51,-29.52"
         style="fill:#1f2221;fill-opacity:1;fill-rule:nonzero;stroke:none"
         id="path204"
         inkscape:connector-curvature="0" /><path
         d="m 2970.04,4566.47 c 0,-25.44 -12.74,-38.16 -38.16,-38.16 -25.45,0 -38.17,12.72 -38.17,38.16 0,25.43 12.72,38.17 38.17,38.17 25.42,0 38.16,-12.74 38.16,-38.17"
         style="fill:#1f2221;fill-opacity:1;fill-rule:nonzero;stroke:none"
         id="path206"
         inkscape:connector-curvature="0" /><path
         d="m 2967.87,4475.75 c 0,-24 -12.01,-35.99 -35.99,-35.99 -24.01,0 -36,11.99 -36,35.99 0,23.99 11.99,36 36,36 23.98,0 35.99,-12.01 35.99,-36"
         style="fill:#1f2221;fill-opacity:1;fill-rule:nonzero;stroke:none"
         id="path208"
         inkscape:connector-curvature="0" /><path
         d="m 2961.39,4203.6 c 0,-20.15 -9.85,-30.25 -29.51,-30.25 -19.69,0 -29.52,10.1 -29.52,30.25 0,19.67 9.83,29.52 29.52,29.52 19.66,0 29.51,-9.85 29.51,-29.52"
         style="fill:#1f2221;fill-opacity:1;fill-rule:nonzero;stroke:none"
         id="path210"
         inkscape:connector-curvature="0" /><path
         d="m 2876.89,4747.92 c 0,-28.32 -14.16,-42.48 -42.48,-42.48 -28.32,0 -42.48,14.16 -42.48,42.48 0,28.33 14.16,42.49 42.48,42.49 28.32,0 42.48,-14.16 42.48,-42.49"
         style="fill:#1f2221;fill-opacity:1;fill-rule:nonzero;stroke:none"
         id="path212"
         inkscape:connector-curvature="0" /><path
         d="m 2874.73,4657.2 c 0,-26.88 -13.44,-40.32 -40.32,-40.32 -26.87,0 -40.31,13.44 -40.31,40.32 0,26.88 13.44,40.31 40.31,40.31 26.88,0 40.32,-13.43 40.32,-40.31"
         style="fill:#1f2221;fill-opacity:1;fill-rule:nonzero;stroke:none"
         id="path214"
         inkscape:connector-curvature="0" /><path
         d="m 2974.95,4747.92 c 0,-28.32 -14.16,-42.48 -42.48,-42.48 -28.32,0 -42.48,14.16 -42.48,42.48 0,28.33 14.16,42.49 42.48,42.49 28.32,0 42.48,-14.16 42.48,-42.49"
         style="fill:#1f2221;fill-opacity:1;fill-rule:nonzero;stroke:none"
         id="path216"
         inkscape:connector-curvature="0" /><path
         d="m 4338.95,4842.07 c 0,-28.32 -14.16,-42.49 -42.48,-42.49 -28.32,0 -42.48,14.17 -42.48,42.49 0,28.32 14.16,42.48 42.48,42.48 28.32,0 42.48,-14.16 42.48,-42.48"
         style="fill:#1f2221;fill-opacity:1;fill-rule:nonzero;stroke:none"
         id="path218"
         inkscape:connector-curvature="0" /><path
         d="m 3754.13,4842.07 c 0,-28.32 -14.16,-42.49 -42.48,-42.49 -28.32,0 -42.49,14.17 -42.49,42.49 0,28.32 14.17,42.48 42.49,42.48 28.32,0 42.48,-14.16 42.48,-42.48"
         style="fill:#1f2221;fill-opacity:1;fill-rule:nonzero;stroke:none"
         id="path220"
         inkscape:connector-curvature="0" /><path
         d="m 3656.65,4842.07 c 0,-28.32 -14.16,-42.49 -42.48,-42.49 -28.32,0 -42.48,14.17 -42.48,42.49 0,28.32 14.16,42.48 42.48,42.48 28.32,0 42.48,-14.16 42.48,-42.48"
         style="fill:#1f2221;fill-opacity:1;fill-rule:nonzero;stroke:none"
         id="path222"
         inkscape:connector-curvature="0" /><path
         d="m 3559.18,4842.07 c 0,-28.32 -14.16,-42.49 -42.48,-42.49 -28.32,0 -42.48,14.17 -42.48,42.49 0,28.32 14.16,42.48 42.48,42.48 28.32,0 42.48,-14.16 42.48,-42.48"
         style="fill:#1f2221;fill-opacity:1;fill-rule:nonzero;stroke:none"
         id="path224"
         inkscape:connector-curvature="0" /><path
         d="m 2974.36,4842.07 c 0,-28.32 -14.16,-42.49 -42.48,-42.49 -28.33,0 -42.49,14.17 -42.49,42.49 0,28.32 14.16,42.48 42.49,42.48 28.32,0 42.48,-14.16 42.48,-42.48"
         style="fill:#1f2221;fill-opacity:1;fill-rule:nonzero;stroke:none"
         id="path226"
         inkscape:connector-curvature="0" /><path
         d="m 4338.95,4936.21 c 0,-28.32 -14.16,-42.48 -42.48,-42.48 -28.32,0 -42.48,14.16 -42.48,42.48 0,28.32 14.16,42.48 42.48,42.48 28.32,0 42.48,-14.16 42.48,-42.48"
         style="fill:#1f2221;fill-opacity:1;fill-rule:nonzero;stroke:none"
         id="path228"
         inkscape:connector-curvature="0" /><path
         d="m 3851.59,4936.21 c 0,-28.32 -14.16,-42.48 -42.48,-42.48 -28.32,0 -42.48,14.16 -42.48,42.48 0,28.32 14.16,42.48 42.48,42.48 28.32,0 42.48,-14.16 42.48,-42.48"
         style="fill:#1f2221;fill-opacity:1;fill-rule:nonzero;stroke:none"
         id="path230"
         inkscape:connector-curvature="0" /><path
         d="m 3656.65,4936.21 c 0,-28.32 -14.16,-42.48 -42.48,-42.48 -28.32,0 -42.48,14.16 -42.48,42.48 0,28.32 14.16,42.48 42.48,42.48 28.32,0 42.48,-14.16 42.48,-42.48"
         style="fill:#1f2221;fill-opacity:1;fill-rule:nonzero;stroke:none"
         id="path232"
         inkscape:connector-curvature="0" /><path
         d="m 3754.71,4936.21 c 0,-28.32 -14.16,-42.48 -42.48,-42.48 -28.32,0 -42.48,14.16 -42.48,42.48 0,28.32 14.16,42.48 42.48,42.48 28.32,0 42.48,-14.16 42.48,-42.48"
         style="fill:#1f2221;fill-opacity:1;fill-rule:nonzero;stroke:none"
         id="path234"
         inkscape:connector-curvature="0" /><path
         d="m 3562.36,4936.21 c 0,-28.32 -14.16,-42.48 -42.48,-42.48 -28.32,0 -42.48,14.16 -42.48,42.48 0,28.32 14.16,42.48 42.48,42.48 28.32,0 42.48,-14.16 42.48,-42.48"
         style="fill:#1f2221;fill-opacity:1;fill-rule:nonzero;stroke:none"
         id="path236"
         inkscape:connector-curvature="0" /><path
         d="m 3461.72,4936.21 c 0,-28.32 -14.16,-42.48 -42.48,-42.48 -28.32,0 -42.48,14.16 -42.48,42.48 0,28.32 14.16,42.48 42.48,42.48 28.32,0 42.48,-14.16 42.48,-42.48"
         style="fill:#1f2221;fill-opacity:1;fill-rule:nonzero;stroke:none"
         id="path238"
         inkscape:connector-curvature="0" /><path
         d="m 2974.36,4936.21 c 0,-28.32 -14.16,-42.48 -42.48,-42.48 -28.33,0 -42.49,14.16 -42.49,42.48 0,28.32 14.16,42.48 42.49,42.48 28.32,0 42.48,-14.16 42.48,-42.48"
         style="fill:#1f2221;fill-opacity:1;fill-rule:nonzero;stroke:none"
         id="path240"
         inkscape:connector-curvature="0" /><path
         d="m 4338.95,5030.35 c 0,-28.32 -14.16,-42.48 -42.48,-42.48 -28.32,0 -42.48,14.16 -42.48,42.48 0,28.32 14.16,42.48 42.48,42.48 28.32,0 42.48,-14.16 42.48,-42.48"
         style="fill:#1f2221;fill-opacity:1;fill-rule:nonzero;stroke:none"
         id="path242"
         inkscape:connector-curvature="0" /><path
         d="m 3754.13,5030.35 c 0,-28.32 -14.16,-42.48 -42.48,-42.48 -28.32,0 -42.49,14.16 -42.49,42.48 0,28.32 14.17,42.48 42.49,42.48 28.32,0 42.48,-14.16 42.48,-42.48"
         style="fill:#1f2221;fill-opacity:1;fill-rule:nonzero;stroke:none"
         id="path244"
         inkscape:connector-curvature="0" /><path
         d="m 3559.18,5030.35 c 0,-28.32 -14.16,-42.48 -42.48,-42.48 -28.32,0 -42.48,14.16 -42.48,42.48 0,28.32 14.16,42.48 42.48,42.48 28.32,0 42.48,-14.16 42.48,-42.48"
         style="fill:#1f2221;fill-opacity:1;fill-rule:nonzero;stroke:none"
         id="path246"
         inkscape:connector-curvature="0" /><path
         d="m 3657.25,5030.35 c 0,-28.32 -14.16,-42.48 -42.48,-42.48 -28.32,0 -42.48,14.16 -42.48,42.48 0,28.32 14.16,42.48 42.48,42.48 28.32,0 42.48,-14.16 42.48,-42.48"
         style="fill:#1f2221;fill-opacity:1;fill-rule:nonzero;stroke:none"
         id="path248"
         inkscape:connector-curvature="0" /><path
         d="m 2974.36,5030.35 c 0,-28.32 -14.16,-42.48 -42.48,-42.48 -28.33,0 -42.49,14.16 -42.49,42.48 0,28.32 14.16,42.48 42.49,42.48 28.32,0 42.48,-14.16 42.48,-42.48"
         style="fill:#1f2221;fill-opacity:1;fill-rule:nonzero;stroke:none"
         id="path250"
         inkscape:connector-curvature="0" /><path
         d="m 4338.95,5124.49 c 0,-28.32 -14.16,-42.48 -42.48,-42.48 -28.32,0 -42.48,14.16 -42.48,42.48 0,28.32 14.16,42.48 42.48,42.48 28.32,0 42.48,-14.16 42.48,-42.48"
         style="fill:#1f2221;fill-opacity:1;fill-rule:nonzero;stroke:none"
         id="path252"
         inkscape:connector-curvature="0" /><path
         d="m 3754.13,5124.49 c 0,-28.32 -14.16,-42.48 -42.48,-42.48 -28.32,0 -42.49,14.16 -42.49,42.48 0,28.32 14.17,42.48 42.49,42.48 28.32,0 42.48,-14.16 42.48,-42.48"
         style="fill:#1f2221;fill-opacity:1;fill-rule:nonzero;stroke:none"
         id="path254"
         inkscape:connector-curvature="0" /><path
         d="m 3656.65,5124.49 c 0,-28.32 -14.16,-42.48 -42.48,-42.48 -28.32,0 -42.48,14.16 -42.48,42.48 0,28.32 14.16,42.48 42.48,42.48 28.32,0 42.48,-14.16 42.48,-42.48"
         style="fill:#1f2221;fill-opacity:1;fill-rule:nonzero;stroke:none"
         id="path256"
         inkscape:connector-curvature="0" /><path
         d="m 3559.18,5124.49 c 0,-28.32 -14.16,-42.48 -42.48,-42.48 -28.32,0 -42.48,14.16 -42.48,42.48 0,28.32 14.16,42.48 42.48,42.48 28.32,0 42.48,-14.16 42.48,-42.48"
         style="fill:#1f2221;fill-opacity:1;fill-rule:nonzero;stroke:none"
         id="path258"
         inkscape:connector-curvature="0" /><path
         d="m 2974.36,5124.49 c 0,-28.32 -14.16,-42.48 -42.48,-42.48 -28.33,0 -42.49,14.16 -42.49,42.48 0,28.32 14.16,42.48 42.49,42.48 28.32,0 42.48,-14.16 42.48,-42.48"
         style="fill:#1f2221;fill-opacity:1;fill-rule:nonzero;stroke:none"
         id="path260"
         inkscape:connector-curvature="0" /><path
         d="m 3656.65,5218.63 c 0,-28.32 -14.16,-42.48 -42.48,-42.48 -28.32,0 -42.48,14.16 -42.48,42.48 0,28.32 14.16,42.48 42.48,42.48 28.32,0 42.48,-14.16 42.48,-42.48"
         style="fill:#1f2221;fill-opacity:1;fill-rule:nonzero;stroke:none"
         id="path262"
         inkscape:connector-curvature="0" /><path
         d="m 3656.65,5312.77 c 0,-28.32 -14.16,-42.48 -42.48,-42.48 -28.32,0 -42.48,14.16 -42.48,42.48 0,28.32 14.16,42.48 42.48,42.48 28.32,0 42.48,-14.16 42.48,-42.48"
         style="fill:#1f2221;fill-opacity:1;fill-rule:nonzero;stroke:none"
         id="path264"
         inkscape:connector-curvature="0" /><path
         d="m 3656.65,5501.05 c 0,-28.32 -14.16,-42.48 -42.48,-42.48 -28.32,0 -42.48,14.16 -42.48,42.48 0,28.32 14.16,42.48 42.48,42.48 28.32,0 42.48,-14.16 42.48,-42.48"
         style="fill:#1f2221;fill-opacity:1;fill-rule:nonzero;stroke:none"
         id="path266"
         inkscape:connector-curvature="0" /><path
         d="m 3656.65,5406.91 c 0,-28.32 -14.16,-42.48 -42.48,-42.48 -28.32,0 -42.48,14.16 -42.48,42.48 0,28.32 14.16,42.48 42.48,42.48 28.32,0 42.48,-14.16 42.48,-42.48"
         style="fill:#1f2221;fill-opacity:1;fill-rule:nonzero;stroke:none"
         id="path268"
         inkscape:connector-curvature="0" /><path
         d="m 2872.58,4566.47 c 0,-25.44 -12.74,-38.16 -38.17,-38.16 -25.45,0 -38.16,12.72 -38.16,38.16 0,25.43 12.71,38.17 38.16,38.17 25.43,0 38.17,-12.74 38.17,-38.17"
         style="fill:#1f2221;fill-opacity:1;fill-rule:nonzero;stroke:none"
         id="path270"
         inkscape:connector-curvature="0" /><path
         d="m 2870.41,4475.75 c 0,-24 -12.01,-35.99 -36,-35.99 -24,0 -35.99,11.99 -35.99,35.99 0,23.99 11.99,36 35.99,36 23.99,0 36,-12.01 36,-36"
         style="fill:#1f2221;fill-opacity:1;fill-rule:nonzero;stroke:none"
         id="path272"
         inkscape:connector-curvature="0" /><path
         d="m 2868.26,4385.03 c 0,-22.56 -11.29,-33.83 -33.85,-33.83 -22.57,0 -33.84,11.27 -33.84,33.83 0,22.56 11.27,33.85 33.84,33.85 22.56,0 33.85,-11.29 33.85,-33.85"
         style="fill:#1f2221;fill-opacity:1;fill-rule:nonzero;stroke:none"
         id="path274"
         inkscape:connector-curvature="0" /><path
         d="m 2866.09,4294.31 c 0,-21.14 -10.56,-31.68 -31.68,-31.68 -21.13,0 -31.68,10.54 -31.68,31.68 0,21.13 10.55,31.7 31.68,31.7 21.12,0 31.68,-10.57 31.68,-31.7"
         style="fill:#1f2221;fill-opacity:1;fill-rule:nonzero;stroke:none"
         id="path276"
         inkscape:connector-curvature="0" /><path
         d="m 2965.66,4294.31 c 0,-21.14 -10.56,-31.68 -31.68,-31.68 -21.13,0 -31.68,10.54 -31.68,31.68 0,21.13 10.55,31.7 31.68,31.7 21.12,0 31.68,-10.57 31.68,-31.7"
         style="fill:#1f2221;fill-opacity:1;fill-rule:nonzero;stroke:none"
         id="path278"
         inkscape:connector-curvature="0" /><path
         d="m 2863.93,4203.6 c 0,-20.15 -9.85,-30.25 -29.52,-30.25 -19.68,0 -29.51,10.1 -29.51,30.25 0,19.67 9.83,29.52 29.51,29.52 19.67,0 29.52,-9.85 29.52,-29.52"
         style="fill:#1f2221;fill-opacity:1;fill-rule:nonzero;stroke:none"
         id="path280"
         inkscape:connector-curvature="0" /><path
         d="m 4325.98,4114.31 c 0,-20.16 -9.84,-30.26 -29.51,-30.26 -19.69,0 -29.51,10.1 -29.51,30.26 0,19.66 9.82,29.51 29.51,29.51 19.67,0 29.51,-9.85 29.51,-29.51"
         style="fill:#1f2221;fill-opacity:1;fill-rule:nonzero;stroke:none"
         id="path282"
         inkscape:connector-curvature="0" /><path
         d="m 3936.1,4114.31 c 0,-20.16 -9.84,-30.26 -29.51,-30.26 -19.69,0 -29.51,10.1 -29.51,30.26 0,19.66 9.82,29.51 29.51,29.51 19.67,0 29.51,-9.85 29.51,-29.51"
         style="fill:#1f2221;fill-opacity:1;fill-rule:nonzero;stroke:none"
         id="path284"
         inkscape:connector-curvature="0" /><path
         d="m 3838.62,4114.31 c 0,-20.16 -9.85,-30.26 -29.51,-30.26 -19.69,0 -29.51,10.1 -29.51,30.26 0,19.66 9.82,29.51 29.51,29.51 19.66,0 29.51,-9.85 29.51,-29.51"
         style="fill:#1f2221;fill-opacity:1;fill-rule:nonzero;stroke:none"
         id="path286"
         inkscape:connector-curvature="0" /><path
         d="m 3741.16,4114.31 c 0,-20.16 -9.85,-30.26 -29.51,-30.26 -19.69,0 -29.52,10.1 -29.52,30.26 0,19.66 9.83,29.51 29.52,29.51 19.66,0 29.51,-9.85 29.51,-29.51"
         style="fill:#1f2221;fill-opacity:1;fill-rule:nonzero;stroke:none"
         id="path288"
         inkscape:connector-curvature="0" /><path
         d="m 3643.68,4114.31 c 0,-20.16 -9.85,-30.26 -29.51,-30.26 -19.69,0 -29.51,10.1 -29.51,30.26 0,19.66 9.82,29.51 29.51,29.51 19.66,0 29.51,-9.85 29.51,-29.51"
         style="fill:#1f2221;fill-opacity:1;fill-rule:nonzero;stroke:none"
         id="path290"
         inkscape:connector-curvature="0" /><path
         d="m 3546.21,4114.31 c 0,-20.16 -9.84,-30.26 -29.51,-30.26 -19.69,0 -29.51,10.1 -29.51,30.26 0,19.66 9.82,29.51 29.51,29.51 19.67,0 29.51,-9.85 29.51,-29.51"
         style="fill:#1f2221;fill-opacity:1;fill-rule:nonzero;stroke:none"
         id="path292"
         inkscape:connector-curvature="0" /><path
         d="m 3448.75,4114.31 c 0,-20.16 -9.84,-30.26 -29.51,-30.26 -19.69,0 -29.51,10.1 -29.51,30.26 0,19.66 9.82,29.51 29.51,29.51 19.67,0 29.51,-9.85 29.51,-29.51"
         style="fill:#1f2221;fill-opacity:1;fill-rule:nonzero;stroke:none"
         id="path294"
         inkscape:connector-curvature="0" /><path
         d="m 3351.27,4114.31 c 0,-20.16 -9.84,-30.26 -29.51,-30.26 -19.69,0 -29.51,10.1 -29.51,30.26 0,19.66 9.82,29.51 29.51,29.51 19.67,0 29.51,-9.85 29.51,-29.51"
         style="fill:#1f2221;fill-opacity:1;fill-rule:nonzero;stroke:none"
         id="path296"
         inkscape:connector-curvature="0" /><path
         d="m 2961.39,4114.31 c 0,-20.16 -9.85,-30.26 -29.51,-30.26 -19.69,0 -29.52,10.1 -29.52,30.26 0,19.66 9.83,29.51 29.52,29.51 19.66,0 29.51,-9.85 29.51,-29.51"
         style="fill:#1f2221;fill-opacity:1;fill-rule:nonzero;stroke:none"
         id="path298"
         inkscape:connector-curvature="0" /><path
         d="m 4325.98,4021.42 c 0,-20.16 -9.84,-30.26 -29.51,-30.26 -19.69,0 -29.51,10.1 -29.51,30.26 0,19.66 9.82,29.51 29.51,29.51 19.67,0 29.51,-9.85 29.51,-29.51"
         style="fill:#1f2221;fill-opacity:1;fill-rule:nonzero;stroke:none"
         id="path300"
         inkscape:connector-curvature="0" /><path
         d="m 3838.62,4021.42 c 0,-20.16 -9.85,-30.26 -29.51,-30.26 -19.69,0 -29.51,10.1 -29.51,30.26 0,19.66 9.82,29.51 29.51,29.51 19.66,0 29.51,-9.85 29.51,-29.51"
         style="fill:#1f2221;fill-opacity:1;fill-rule:nonzero;stroke:none"
         id="path302"
         inkscape:connector-curvature="0" /><path
         d="m 3643.68,4021.42 c 0,-20.16 -9.85,-30.26 -29.51,-30.26 -19.69,0 -29.51,10.1 -29.51,30.26 0,19.66 9.82,29.51 29.51,29.51 19.66,0 29.51,-9.85 29.51,-29.51"
         style="fill:#1f2221;fill-opacity:1;fill-rule:nonzero;stroke:none"
         id="path304"
         inkscape:connector-curvature="0" /><path
         d="m 3448.75,4021.42 c 0,-20.16 -9.84,-30.26 -29.51,-30.26 -19.69,0 -29.51,10.1 -29.51,30.26 0,19.66 9.82,29.51 29.51,29.51 19.67,0 29.51,-9.85 29.51,-29.51"
         style="fill:#1f2221;fill-opacity:1;fill-rule:nonzero;stroke:none"
         id="path306"
         inkscape:connector-curvature="0" /><path
         d="m 2961.39,4021.42 c 0,-20.16 -9.85,-30.26 -29.51,-30.26 -19.69,0 -29.52,10.1 -29.52,30.26 0,19.66 9.83,29.51 29.52,29.51 19.66,0 29.51,-9.85 29.51,-29.51"
         style="fill:#1f2221;fill-opacity:1;fill-rule:nonzero;stroke:none"
         id="path308"
         inkscape:connector-curvature="0" /><path
         d="m 3582.5,4019.6 c 0,21.13 10.57,31.68 31.68,31.68 21.14,0 31.68,-10.55 31.68,-31.68 0,-21.13 -10.54,-31.7 -31.68,-31.7 -21.11,0 -31.68,10.57 -31.68,31.7"
         style="fill:#1f2221;fill-opacity:1;fill-rule:nonzero;stroke:none"
         id="path310"
         inkscape:connector-curvature="0" /><path
         d="m 3838.62,3932.12 c 0,-20.16 -9.85,-30.25 -29.51,-30.25 -19.69,0 -29.51,10.09 -29.51,30.25 0,19.67 9.82,29.51 29.51,29.51 19.66,0 29.51,-9.84 29.51,-29.51"
         style="fill:#1f2221;fill-opacity:1;fill-rule:nonzero;stroke:none"
         id="path312"
         inkscape:connector-curvature="0" /><path
         d="m 3741.16,3932.12 c 0,-20.16 -9.85,-30.25 -29.51,-30.25 -19.69,0 -29.52,10.09 -29.52,30.25 0,19.67 9.83,29.51 29.52,29.51 19.66,0 29.51,-9.84 29.51,-29.51"
         style="fill:#1f2221;fill-opacity:1;fill-rule:nonzero;stroke:none"
         id="path314"
         inkscape:connector-curvature="0" /><path
         d="m 3643.68,3932.12 c 0,-20.16 -9.85,-30.25 -29.51,-30.25 -19.69,0 -29.51,10.09 -29.51,30.25 0,19.67 9.82,29.51 29.51,29.51 19.66,0 29.51,-9.84 29.51,-29.51"
         style="fill:#1f2221;fill-opacity:1;fill-rule:nonzero;stroke:none"
         id="path316"
         inkscape:connector-curvature="0" /><path
         d="m 3546.21,3932.12 c 0,-20.16 -9.84,-30.25 -29.51,-30.25 -19.69,0 -29.51,10.09 -29.51,30.25 0,19.67 9.82,29.51 29.51,29.51 19.67,0 29.51,-9.84 29.51,-29.51"
         style="fill:#1f2221;fill-opacity:1;fill-rule:nonzero;stroke:none"
         id="path318"
         inkscape:connector-curvature="0" /><path
         d="m 3448.75,3932.12 c 0,-20.16 -9.84,-30.25 -29.51,-30.25 -19.69,0 -29.51,10.09 -29.51,30.25 0,19.67 9.82,29.51 29.51,29.51 19.67,0 29.51,-9.84 29.51,-29.51"
         style="fill:#1f2221;fill-opacity:1;fill-rule:nonzero;stroke:none"
         id="path320"
         inkscape:connector-curvature="0" /><path
         d="m 3582.5,3930.3 c 0,21.14 10.57,31.68 31.68,31.68 21.14,0 31.68,-10.54 31.68,-31.68 0,-21.13 -10.54,-31.7 -31.68,-31.7 -21.11,0 -31.68,10.57 -31.68,31.7"
         style="fill:#1f2221;fill-opacity:1;fill-rule:nonzero;stroke:none"
         id="path322"
         inkscape:connector-curvature="0" /><path
         d="m 3741.16,3839.23 c 0,-20.15 -9.85,-30.25 -29.51,-30.25 -19.69,0 -29.52,10.1 -29.52,30.25 0,19.67 9.83,29.51 29.52,29.51 19.66,0 29.51,-9.84 29.51,-29.51"
         style="fill:#1f2221;fill-opacity:1;fill-rule:nonzero;stroke:none"
         id="path324"
         inkscape:connector-curvature="0" /><path
         d="m 3643.68,3839.23 c 0,-20.15 -9.85,-30.25 -29.51,-30.25 -19.69,0 -29.51,10.1 -29.51,30.25 0,19.67 9.82,29.51 29.51,29.51 19.66,0 29.51,-9.84 29.51,-29.51"
         style="fill:#1f2221;fill-opacity:1;fill-rule:nonzero;stroke:none"
         id="path326"
         inkscape:connector-curvature="0" /><path
         d="m 3546.21,3839.23 c 0,-20.15 -9.84,-30.25 -29.51,-30.25 -19.69,0 -29.51,10.1 -29.51,30.25 0,19.67 9.82,29.51 29.51,29.51 19.67,0 29.51,-9.84 29.51,-29.51"
         style="fill:#1f2221;fill-opacity:1;fill-rule:nonzero;stroke:none"
         id="path328"
         inkscape:connector-curvature="0" /><path
         d="m 3582.5,3837.42 c 0,21.12 10.57,31.67 31.68,31.67 21.14,0 31.68,-10.55 31.68,-31.67 0,-21.14 -10.54,-31.7 -31.68,-31.7 -21.11,0 -31.68,10.56 -31.68,31.7"
         style="fill:#1f2221;fill-opacity:1;fill-rule:nonzero;stroke:none"
         id="path330"
         inkscape:connector-curvature="0" /><path
         d="m 3570.7,3201.28 c 0,28.32 14.16,42.48 42.48,42.48 28.33,0 42.49,-14.16 42.49,-42.48 0,-28.32 -14.16,-42.48 -42.49,-42.48 -28.32,0 -42.48,14.16 -42.48,42.48"
         style="fill:#1f2221;fill-opacity:1;fill-rule:nonzero;stroke:none"
         id="path332"
         inkscape:connector-curvature="0" /><path
         d="m 3575.02,3382.73 c 0,25.45 12.73,38.16 38.16,38.16 25.46,0 38.17,-12.71 38.17,-38.16 0,-25.43 -12.71,-38.16 -38.17,-38.16 -25.43,0 -38.16,12.73 -38.16,38.16"
         style="fill:#1f2221;fill-opacity:1;fill-rule:nonzero;stroke:none"
         id="path334"
         inkscape:connector-curvature="0" /><path
         d="m 3581.5,3654.9 c 0,21.14 10.57,31.68 31.68,31.68 21.14,0 31.69,-10.54 31.69,-31.68 0,-21.13 -10.55,-31.7 -31.69,-31.7 -21.11,0 -31.68,10.57 -31.68,31.7"
         style="fill:#1f2221;fill-opacity:1;fill-rule:nonzero;stroke:none"
         id="path336"
         inkscape:connector-curvature="0" /><path
         d="m 3583.67,3745.61 c 0,20.17 9.85,30.27 29.51,30.27 19.7,0 29.52,-10.1 29.52,-30.27 0,-19.67 -9.82,-29.52 -29.52,-29.52 -19.66,0 -29.51,9.85 -29.51,29.52"
         style="fill:#1f2221;fill-opacity:1;fill-rule:nonzero;stroke:none"
         id="path338"
         inkscape:connector-curvature="0" /><path
         d="m 4257.33,3382.73 c 0,25.45 12.73,38.16 38.16,38.16 25.45,0 38.17,-12.71 38.17,-38.16 0,-25.43 -12.72,-38.16 -38.17,-38.16 -25.43,0 -38.16,12.73 -38.16,38.16"
         style="fill:#1f2221;fill-opacity:1;fill-rule:nonzero;stroke:none"
         id="path340"
         inkscape:connector-curvature="0" /><path
         d="m 4261.65,3564.18 c 0,22.55 11.28,33.82 33.84,33.82 22.58,0 33.85,-11.27 33.85,-33.82 0,-22.56 -11.27,-33.85 -33.85,-33.85 -22.56,0 -33.84,11.29 -33.84,33.85"
         style="fill:#1f2221;fill-opacity:1;fill-rule:nonzero;stroke:none"
         id="path342"
         inkscape:connector-curvature="0" /><path
         d="m 4265.98,3745.61 c 0,20.17 9.85,30.27 29.51,30.27 19.69,0 29.51,-10.1 29.51,-30.27 0,-19.67 -9.82,-29.52 -29.51,-29.52 -19.66,0 -29.51,9.85 -29.51,29.52"
         style="fill:#1f2221;fill-opacity:1;fill-rule:nonzero;stroke:none"
         id="path344"
         inkscape:connector-curvature="0" /><path
         d="m 2892.7,3382.73 c 0,25.45 12.73,38.16 38.16,38.16 25.45,0 38.16,-12.71 38.16,-38.16 0,-25.43 -12.71,-38.16 -38.16,-38.16 -25.43,0 -38.16,12.73 -38.16,38.16"
         style="fill:#1f2221;fill-opacity:1;fill-rule:nonzero;stroke:none"
         id="path346"
         inkscape:connector-curvature="0" /><path
         d="m 2897.01,3564.18 c 0,22.55 11.29,33.82 33.85,33.82 22.58,0 33.85,-11.27 33.85,-33.82 0,-22.56 -11.27,-33.85 -33.85,-33.85 -22.56,0 -33.85,11.29 -33.85,33.85"
         style="fill:#1f2221;fill-opacity:1;fill-rule:nonzero;stroke:none"
         id="path348"
         inkscape:connector-curvature="0" /><path
         d="m 2901.35,3745.61 c 0,20.17 9.84,30.27 29.51,30.27 19.69,0 29.51,-10.1 29.51,-30.27 0,-19.67 -9.82,-29.52 -29.51,-29.52 -19.67,0 -29.51,9.85 -29.51,29.52"
         style="fill:#1f2221;fill-opacity:1;fill-rule:nonzero;stroke:none"
         id="path350"
         inkscape:connector-curvature="0" /></g></g></svg>